<svg width="20" height="28" viewBox="0 0 20 28" xmlns="http://www.w3.org/2000/svg"><title>1E00A730-87A0-4209-9186-6FF497EA9BA6</title><g fill="none" fill-rule="evenodd"><path d="M-18-15h56v56h-56z"/><path d="M0 10.106h2.41c.277-1.545.718-2.941 1.322-4.189.604-1.247 1.34-2.308 2.21-3.182A9.394 9.394 0 0 1 8.895.712C9.994.237 11.19 0 12.482 0c1.679 0 3.113.339 4.311 1.016a9.154 9.154 0 0 1 3.008 2.745l-1.576 1.786c-.124.14-.248.263-.384.37-.13.108-.317.162-.558.162a.753.753 0 0 1-.462-.152 5.948 5.948 0 0 1-.465-.38 20.91 20.91 0 0 0-.562-.494 3.997 3.997 0 0 0-.73-.494 4.517 4.517 0 0 0-1.009-.38 5.453 5.453 0 0 0-1.374-.152c-1.425 0-2.63.513-3.608 1.539-.975 1.026-1.658 2.539-2.047 4.54h9.094v1.444c0 .29-.106.56-.332.807-.223.247-.528.37-.912.37H6.721c-.012.216-.018.428-.018.637v1.092c0 .152.006.298.018.437h7.684v1.425c0 .29-.115.56-.338.807-.223.247-.525.37-.897.37H6.938c.336 2.178.988 3.803 1.945 4.873.963 1.07 2.153 1.605 3.58 1.605.867 0 1.568-.124 2.093-.37.526-.248.957-.523 1.286-.827.33-.304.607-.58.83-.826.227-.247.475-.37.74-.37.13 0 .248.022.354.066.1.044.199.13.293.256L20 23.764c-.842 1.368-1.923 2.416-3.225 3.144-1.304.728-2.82 1.092-4.547 1.092-1.416 0-2.684-.25-3.816-.75a8.762 8.762 0 0 1-2.941-2.118c-.833-.912-1.516-2.014-2.047-3.306-.531-1.291-.906-2.735-1.123-4.33H0v-2.603h2.101a5.062 5.062 0 0 1-.018-.437v-1.092c0-.21.006-.421.018-.637H0v-2.621z" fill="#81B7CF"/></g></svg>