<svg width="30" height="28" viewBox="0 0 30 28" xmlns="http://www.w3.org/2000/svg"><title>B244263B-A53C-49A7-B967-C60EB3EAB57B</title><g fill="none" fill-rule="evenodd"><g fill="#81B7CF"><path d="M15 0L0 12.847 1.332 14.4 15 2.695 28.666 14.4 30 12.847zM8.229 0H4.8v6.343l3.429-2.95z"/><path d="M4.8 14.33v12.249c0 .754.61 1.364 1.362 1.364h5.44v-7.485c0-.378.306-.683.683-.683h5.436c.377 0 .683.305.683.683v7.482l-.001.003h6.12c.753 0 1.363-.61 1.363-1.364V14.33L15.003 4.8 4.8 14.33z"/></g><path d="M-13-14h56v56h-56z"/></g></svg>