<svg width="30" height="31" viewBox="0 0 30 31" xmlns="http://www.w3.org/2000/svg" xmlns:xlink="http://www.w3.org/1999/xlink"><title>F1F34570-826A-476E-94AA-1A9BB1A8247D</title><defs><path id="a" d="M0 .2v21.973h29.567V.2H0z"/></defs><g fill="none" fill-rule="evenodd"><path d="M13.215 27.071a3.478 3.478 0 1 1-6.956.001 3.478 3.478 0 0 1 6.956-.001m8.697 0a3.479 3.479 0 1 1-6.957 0 3.479 3.479 0 0 1 6.957 0" fill="#81B7CF"/><g transform="translate(0 .55)"><mask id="b" fill="#fff"><use xlink:href="#a"/></mask><path d="M15.607 12.608V2.516a13.855 13.855 0 0 1 11.661 10.092h-11.66zm13.903 0A16.029 16.029 0 0 0 14.566.249L13.433.2v12.408H0v2.38c0 3.952 3.233 7.185 7.185 7.185h15.198c3.951 0 7.184-3.233 7.184-7.184l-.057-2.381z" fill="#81B7CF" mask="url(#b)"/></g><path d="M-13-13h56v56h-56z"/></g></svg>