<svg width="16" height="35" viewBox="0 0 16 35" xmlns="http://www.w3.org/2000/svg" xmlns:xlink="http://www.w3.org/1999/xlink"><title>0B071120-C7F6-48E6-89F8-13D933E22FAA</title><defs><path id="a" d="M15.923 8.039V16H0V.077h15.923V8.04z"/><path id="c" d="M11.534.5H.389v28.308h11.145z"/></defs><g fill="none" fill-rule="evenodd"><g transform="translate(0 18.5)"><mask id="b" fill="#fff"><use xlink:href="#a"/></mask><path d="M0 8.038a7.962 7.962 0 1 1 15.923.001A7.962 7.962 0 0 1 0 8.04" fill="#81B7CF" mask="url(#b)"/></g><g transform="translate(2 -.5)"><mask id="d" fill="#fff"><use xlink:href="#c"/></mask><path d="M5.962 28.808c-3.065 0-5.573-2.508-5.573-5.573V6.074C.389 3.008 2.897.5 5.962.5c3.064 0 5.572 2.508 5.572 5.574v17.16c0 3.066-2.508 5.574-5.572 5.574" fill="#81B7CF" mask="url(#d)"/></g><path d="M9.73 22.49V6.32c0-.975-.796-1.77-1.769-1.77-.973 0-1.769.795-1.769 1.77v16.17a4.419 4.419 0 0 0-2.654 4.048 4.424 4.424 0 1 0 8.847 0A4.417 4.417 0 0 0 9.73 22.49" fill="#81B7CF"/><path d="M7.077 13.396v9.671l-.53.232a3.542 3.542 0 0 0-2.124 3.24 3.542 3.542 0 0 0 3.54 3.538 3.542 3.542 0 0 0 3.537-3.539 3.542 3.542 0 0 0-2.124-3.24l-.53-.23v-9.673H7.077zm.885 18.45a5.314 5.314 0 0 1-5.308-5.308 5.308 5.308 0 0 1 2.653-4.591V6.319a2.657 2.657 0 0 1 2.655-2.654 2.656 2.656 0 0 1 2.653 2.654v15.628a5.304 5.304 0 0 1 2.654 4.591 5.313 5.313 0 0 1-5.307 5.308z" fill="#FFF"/><path d="M-20-11h56v56h-56z"/></g></svg>